<svg width="40" height="40" viewBox="0 0 40 40" fill="none" xmlns="http://www.w3.org/2000/svg">
<path d="M36 11H13.7256C13.3969 11 13.0817 11.127 12.8493 11.3529C12.6169 11.5789 12.4864 11.8854 12.4864 12.205V15.2555C12.4885 15.4311 12.4547 15.6053 12.387 15.768C12.3194 15.9308 12.2192 16.0789 12.0923 16.2037C11.9653 16.3286 11.8142 16.4277 11.6476 16.4953C11.481 16.563 11.3022 16.5978 11.1217 16.5978H5.22367C5.06166 16.5978 4.90127 16.629 4.75179 16.6898C4.60232 16.7505 4.46673 16.8395 4.35291 16.9516C4.23909 17.0637 4.14929 17.1967 4.08874 17.3428C4.02818 17.4889 3.99807 17.6452 4.00014 17.8028V25.5969C3.99806 25.7084 4.01883 25.8191 4.06126 25.9227C4.10368 26.0262 4.1669 26.1205 4.24722 26.2C4.32754 26.2796 4.42335 26.3427 4.52906 26.3858C4.63477 26.4289 4.74825 26.4511 4.86288 26.4511H10.2903C10.3816 27.1551 10.7339 27.8025 11.2812 28.2718C11.8285 28.7411 12.5331 29 13.2628 29C13.9925 29 14.6972 28.7411 15.2445 28.2718C15.7918 27.8025 16.1441 27.1551 16.2354 26.4511H25.6471C25.7384 27.1551 26.0907 27.8025 26.638 28.2718C27.1853 28.7411 27.8899 29 28.6196 29C29.3493 29 30.054 28.7411 30.6013 28.2718C31.1486 27.8025 31.5009 27.1551 31.5922 26.4511H36V11Z" fill="#514F4E"/>
</svg>
